<?xml version="1.0" encoding="UTF-8"?>
<svg xmlns="http://www.w3.org/2000/svg" width="1024" height="1024" viewBox="0 0 1024 1024">
  <defs>
    <linearGradient id="g" x1="0" x2="1" y1="0" y2="1">
      <stop offset="0%" stop-color="#3b82f6"/>
      <stop offset="100%" stop-color="#8b5cf6"/>
    </linearGradient>
    <filter id="s" x="-20%" y="-20%" width="140%" height="140%">
      <feDropShadow dx="0" dy="16" stdDeviation="24" flood-color="rgba(0,0,0,0.35)"/>
    </filter>
  </defs>
  <rect x="64" y="64" width="896" height="896" rx="192" fill="url(#g)" filter="url(#s)"/>
  <g fill="#ffffff" opacity="0.95">
    <path d="M320 384h256c35 0 64 29 64 64v128c0 35-29 64-64 64H320c-35 0-64-29-64-64V448c0-35 29-64 64-64z"/>
    <path d="M704 448l80-48c10-6 24 1 24 13v198c0 12-14 19-24 13l-80-48V448z"/>
    <circle cx="448" cy="512" r="64"/>
  </g>
</svg>

